# xmcd CD database file
#
# Track frame offsets:
#	150
#	18891
#	40353
#	57929
#	79448
#	92788
#	117507
#	131364
#	148926
#	170742
#	187975
#	210782
#	228455
#
# Disc length: 3363 seconds
#
# Revision: 0
# Processed by: cddbd v1.5.2PL0 Copyright (c) Steve Scherf et al.
# Submitted via: CDex 1.70beta2
#
DISCID=b30d210d
DTITLE=Lyambiko - Love Letters
DYEAR=2017
DGENRE=Jazz
TTITLE0=Star Eyes
TTITLE1=Things Are Looking Up Again
TTITLE2=Some Day My Prince Will Come
TTITLE3=Home
TTITLE4=Love Letters
TTITLE5=There Is No Greater Love
TTITLE6=Till There Was You
TTITLE7=Summer Morning
TTITLE8=Close Your Eyes
TTITLE9=Answer Me
TTITLE10=Under a Blanket of Blue
TTITLE11=When You're Not There
TTITLE12=Stardust
EXTD=YEAR: 2017
EXTT0=
EXTT1=
EXTT2=
EXTT3=
EXTT4=
EXTT5=
EXTT6=
EXTT7=
EXTT8=
EXTT9=
EXTT10=
EXTT11=
EXTT12=
PLAYORDER=
